<?xml version="1.0" encoding="UTF-8"?>
<svg id="Layer_1" xmlns="http://www.w3.org/2000/svg" version="1.1" viewBox="0 0 1247.18 456.4">
  <!-- Generator: Adobe Illustrator 30.3.0, SVG Export Plug-In . SVG Version: 2.1.3 Build 182)  -->
  <defs>
    <style>
      .st0 {
        stroke: #000;
        stroke-miterlimit: 10;
        stroke-width: 9px;
      }

      .st0, .st1 {
        fill: #c1fe72;
      }
    </style>
  </defs>
  <g>
    <circle class="st0" cx="207.85" cy="228.2" r="148.65"/>
    <circle cx="139.73" cy="200.29" r="17.88"/>
    <circle cx="189.97" cy="200.29" r="17.88"/>
  </g>
  <g>
    <g>
      <g>
        <path d="M449.58,305.57c-4.84,0-9.48-.88-13.81-2.61-3.32-1.33-6.33-2.99-8.99-4.94v5.24h-38.77v-142.17h39.06v57.46c2.12-1.37,4.55-2.6,7.27-3.68,4.51-1.8,9.63-2.71,15.24-2.71,8.65,0,16.3,2.19,22.74,6.51,6.35,4.26,11.31,10,14.76,17.08,3.39,6.96,5.11,14.76,5.11,23.17s-1.72,16.21-5.11,23.17c-3.45,7.08-8.42,12.81-14.78,17.04-6.44,4.28-14.08,6.45-22.73,6.45ZM440.63,244.97c-2.66,0-4.95.58-6.99,1.78-2.04,1.2-3.61,2.8-4.79,4.9-1.19,2.13-1.78,4.5-1.78,7.26s.58,5.14,1.77,7.26c1.17,2.09,2.73,3.67,4.75,4.83,2.05,1.18,4.35,1.75,7.03,1.75,2.53,0,4.72-.56,6.69-1.73,1.97-1.16,3.48-2.74,4.63-4.82,1.18-2.13,1.75-4.52,1.75-7.3s-.57-5.16-1.75-7.3c-1.16-2.1-2.68-3.7-4.67-4.89-1.97-1.18-4.14-1.75-6.66-1.75Z"/>
        <path d="M422.17,166v64.92c.58-1.79,2.07-3.77,4.47-5.92,2.4-2.15,5.58-4.01,9.52-5.58,3.94-1.57,8.42-2.36,13.42-2.36,7.69,0,14.36,1.89,20.01,5.68,5.64,3.78,10,8.83,13.08,15.15,3.08,6.32,4.62,13.32,4.62,21.02s-1.54,14.7-4.62,21.02c-3.08,6.32-7.44,11.35-13.08,15.1-5.64,3.75-12.31,5.63-20.01,5.63-4.23,0-8.22-.76-11.98-2.26-3.75-1.51-6.99-3.43-9.71-5.77-2.73-2.34-4.73-4.7-6.01-7.07v12.79h-28.95v-132.35h29.24M440.63,277.67c3.4,0,6.46-.8,9.19-2.4,2.72-1.6,4.87-3.83,6.44-6.68,1.57-2.85,2.36-6.07,2.36-9.67s-.79-6.81-2.36-9.67c-1.57-2.85-3.72-5.1-6.44-6.73-2.73-1.64-5.79-2.45-9.19-2.45s-6.68.82-9.47,2.45c-2.79,1.63-4.99,3.88-6.59,6.73-1.6,2.85-2.4,6.08-2.4,9.67s.8,6.81,2.4,9.67c1.6,2.85,3.8,5.08,6.59,6.68,2.79,1.6,5.95,2.4,9.47,2.4M431.99,156.17h-48.89v152h48.6v-1.62c.73.34,1.48.66,2.24.96,4.91,1.97,10.17,2.97,15.64,2.97,9.63,0,18.19-2.45,25.44-7.27,7.09-4.71,12.63-11.1,16.47-18.98,3.72-7.64,5.61-16.16,5.61-25.32s-1.89-17.68-5.61-25.32c-3.83-7.86-9.36-14.26-16.44-19-7.27-4.87-15.84-7.34-25.48-7.34-6.23,0-11.97,1.03-17.05,3.05-.18.07-.36.14-.54.22v-54.35h0ZM440.63,267.85c-1.8,0-3.29-.36-4.58-1.1-1.26-.72-2.19-1.67-2.92-2.98-.77-1.38-1.15-2.96-1.15-4.86s.37-3.48,1.15-4.85c.75-1.34,1.7-2.32,2.99-3.07,1.27-.74,2.74-1.1,4.51-1.1,1.62,0,2.93.33,4.13,1.05,1.24.74,2.16,1.71,2.89,3.05.76,1.39,1.14,3,1.14,4.92s-.37,3.54-1.14,4.93c-.72,1.31-1.62,2.25-2.82,2.96-1.22.72-2.55,1.05-4.21,1.05h0Z"/>
      </g>
      <g>
        <rect x="486.31" y="214.47" width="39.06" height="88.79"/>
        <path d="M520.47,219.38v78.97h-29.24v-78.97h29.24M530.29,209.56h-48.89v98.61h48.89v-98.61h0Z"/>
      </g>
      <g>
        <path d="M506.23,208.04c-5.96,0-11.08-2.12-15.23-6.31-4.13-4.17-6.23-9.23-6.23-15.04s2.11-10.89,6.26-15.12c4.18-4.26,9.29-6.43,15.19-6.43,3.9,0,7.54,1,10.81,2.96,3.17,1.91,5.76,4.48,7.71,7.64,2.02,3.27,3.04,6.96,3.04,10.94,0,5.83-2.14,10.9-6.36,15.08-4.21,4.17-9.32,6.28-15.19,6.28Z"/>
        <path d="M506.23,170.04c3.01,0,5.77.75,8.27,2.26,2.5,1.51,4.52,3.51,6.06,6.01,1.54,2.5,2.31,5.29,2.31,8.37,0,4.49-1.64,8.35-4.91,11.59-3.27,3.24-7.18,4.86-11.73,4.86s-8.53-1.62-11.73-4.86c-3.21-3.24-4.81-7.1-4.81-11.59s1.62-8.38,4.86-11.69c3.24-3.3,7.13-4.95,11.69-4.95M506.23,160.21c-7.17,0-13.63,2.73-18.7,7.9-5.01,5.11-7.67,11.53-7.67,18.56s2.65,13.45,7.65,18.5c5.03,5.08,11.5,7.77,18.71,7.77s13.56-2.66,18.65-7.7c5.11-5.06,7.82-11.48,7.82-18.57,0-4.91-1.27-9.46-3.77-13.52-2.36-3.83-5.51-6.96-9.35-9.27-4.05-2.44-8.53-3.67-13.34-3.67h0Z"/>
      </g>
      <g>
        <polygon points="512.41 303.26 551.75 244.59 523.06 244.59 523.06 214.47 615.39 214.47 575.96 273.05 608 273.05 608 303.26 512.41 303.26"/>
        <path d="M606.16,219.38l-39.44,58.58h36.36v20.39h-81.47l39.34-58.67h-32.99v-20.29h78.2M624.62,209.56h-106.47v39.94h24.4l-29.09,43.38-10.25,15.29h109.7v-40.04h-27.73l29.13-43.27,10.31-15.31h0Z"/>
      </g>
      <g>
        <path d="M621.94,208.04c-5.96,0-11.08-2.12-15.23-6.31-4.13-4.17-6.23-9.23-6.23-15.04s2.11-10.89,6.26-15.12c4.18-4.26,9.29-6.43,15.19-6.43,3.9,0,7.54,1,10.81,2.96,3.17,1.91,5.76,4.48,7.71,7.64,2.02,3.27,3.04,6.96,3.04,10.94,0,5.83-2.14,10.9-6.36,15.08-4.21,4.17-9.32,6.28-15.19,6.28Z"/>
        <path d="M621.94,170.04c3.01,0,5.77.75,8.27,2.26,2.5,1.51,4.52,3.51,6.06,6.01,1.54,2.5,2.31,5.29,2.31,8.37,0,4.49-1.64,8.35-4.91,11.59-3.27,3.24-7.18,4.86-11.73,4.86s-8.53-1.62-11.73-4.86c-3.21-3.24-4.81-7.1-4.81-11.59s1.62-8.38,4.86-11.69c3.24-3.3,7.13-4.95,11.69-4.95M621.94,160.21c-7.17,0-13.63,2.73-18.7,7.9-5.01,5.11-7.67,11.53-7.67,18.56s2.65,13.45,7.65,18.5c5.03,5.08,11.5,7.77,18.71,7.77s13.56-2.66,18.65-7.7c5.11-5.06,7.82-11.48,7.82-18.57,0-4.91-1.27-9.46-3.77-13.52-2.36-3.83-5.51-6.96-9.35-9.27-4.05-2.44-8.53-3.67-13.34-3.67h0Z"/>
      </g>
      <g>
        <rect x="602.02" y="214.47" width="39.06" height="88.79"/>
        <path d="M636.17,219.38v78.97h-29.24v-78.97h29.24M646,209.56h-48.89v98.61h48.89v-98.61h0Z"/>
      </g>
      <g>
        <path d="M751.11,303.26v-46.85c0-4.73-.67-8.5-2-11.21-.34-.7-1.15-2.35-5.5-2.35-1.95,0-3.59.47-5.01,1.45-1.5,1.03-2.64,2.45-3.49,4.35-.93,2.08-1.4,4.69-1.4,7.76v46.85h-36.66v-46.85c0-4.67-.73-8.38-2.16-11.05-.67-1.24-1.82-2.51-5.34-2.51-1.97,0-3.62.47-5.05,1.43-1.46.98-2.57,2.37-3.38,4.23-.91,2.09-1.37,4.75-1.37,7.9v46.85h-38.87v-88.79h38.87v4.13c2.38-1.51,5.08-2.84,8.08-3.96,4.38-1.64,9.07-2.48,13.94-2.48,5.34,0,9.95.83,13.71,2.48,3.8,1.67,6.98,3.95,9.47,6.79.51.58.99,1.17,1.46,1.77.56-.57,1.16-1.13,1.8-1.7,3.09-2.72,6.95-4.98,11.49-6.72,4.55-1.75,9.5-2.63,14.7-2.63,6.76,0,12.85,1.45,18.11,4.3,5.43,2.94,9.72,7.48,12.77,13.5,2.94,5.8,4.42,13.21,4.42,22.03v51.27h-38.58Z"/>
        <path d="M754.38,217.07c5.96,0,11.22,1.24,15.77,3.7,4.55,2.47,8.13,6.27,10.73,11.4,2.6,5.13,3.89,11.73,3.89,19.82v46.36h-28.76v-41.94c0-5.51-.83-9.97-2.5-13.37-1.67-3.4-4.97-5.1-9.91-5.1-2.95,0-5.55.77-7.79,2.31-2.25,1.54-3.98,3.67-5.19,6.4s-1.83,5.98-1.83,9.76v41.94h-26.84v-41.94c0-5.51-.91-9.97-2.74-13.37-1.83-3.4-5.05-5.1-9.67-5.1-2.95,0-5.55.75-7.79,2.26-2.25,1.51-3.96,3.62-5.15,6.35-1.19,2.73-1.78,6.01-1.78,9.86v41.94h-29.05v-78.97h29.05v11.25c.77-1.99,2.45-4.02,5.05-6.11,2.6-2.08,5.82-3.85,9.67-5.29,3.85-1.44,7.92-2.16,12.22-2.16,4.68,0,8.59.69,11.73,2.07,3.14,1.38,5.72,3.22,7.74,5.53,2.02,2.31,3.64,4.81,4.86,7.5.9-2.31,2.68-4.63,5.34-6.97,2.66-2.34,6-4.28,10-5.82,4.01-1.54,8.32-2.31,12.94-2.31M754.38,207.25c-5.8,0-11.34,1-16.46,2.96-4.22,1.62-7.95,3.66-11.11,6.09-2.63-2.51-5.77-4.57-9.36-6.15-4.39-1.92-9.66-2.9-15.69-2.9-5.46,0-10.73.94-15.67,2.79-.49.18-.97.37-1.44.56v-1.05h-48.69v98.61h48.69v-51.76c0-2.44.33-4.49.96-5.94.57-1.31,1.19-1.83,1.62-2.12.41-.28,1.05-.59,2.32-.59.55,0,.9.05,1.1.09.7,1.37,1.48,3.95,1.48,8.55v51.76h46.48v-51.76c0-2.38.33-4.31.97-5.75.63-1.4,1.31-1.98,1.78-2.3.4-.28,1.02-.59,2.24-.59.62,0,1.04.05,1.31.1.62,1.5,1.27,4.13,1.27,8.55v51.76h48.4v-56.18c0-9.6-1.67-17.76-4.95-24.25-3.51-6.92-8.49-12.17-14.81-15.6-5.99-3.25-12.87-4.89-20.46-4.89h0Z"/>
      </g>
      <g>
        <g>
          <path d="M910.97,208.04c-5.95,0-11.08-2.12-15.22-6.31-4.13-4.17-6.23-9.24-6.23-15.05s2.11-10.89,6.26-15.12c4.18-4.26,9.29-6.43,15.19-6.43,3.9,0,7.54,1,10.81,2.96,3.17,1.91,5.76,4.48,7.71,7.64,2.02,3.28,3.04,6.96,3.04,10.94,0,5.83-2.14,10.9-6.36,15.08-4.21,4.17-9.32,6.28-15.19,6.28Z"/>
          <path d="M910.97,170.04c3.01,0,5.77.75,8.27,2.26,2.5,1.51,4.52,3.51,6.06,6.01s2.31,5.29,2.31,8.37c0,4.49-1.63,8.35-4.9,11.59-3.27,3.24-7.18,4.86-11.74,4.86s-8.53-1.62-11.73-4.86c-3.21-3.24-4.81-7.1-4.81-11.59s1.62-8.38,4.86-11.69c3.24-3.3,7.13-4.95,11.69-4.95M910.97,160.21c-7.17,0-13.63,2.73-18.7,7.9-5.02,5.12-7.67,11.54-7.67,18.56s2.65,13.45,7.65,18.5c5.03,5.08,11.5,7.77,18.71,7.77s13.56-2.66,18.65-7.7c5.11-5.06,7.82-11.48,7.82-18.57,0-4.91-1.27-9.46-3.76-13.52-2.36-3.84-5.51-6.96-9.35-9.28-4.05-2.44-8.53-3.67-13.34-3.67h0Z"/>
        </g>
        <g>
          <g>
            <path d="M866.44,305.57c-9.77,0-18.53-1.91-26.05-5.67-7.67-3.83-13.73-9.35-18.02-16.42-4.27-7.03-6.44-15.33-6.44-24.67s2.17-17.72,6.45-24.69c4.29-6.99,10.34-12.47,18.01-16.3,7.52-3.76,16.28-5.66,26.05-5.66,5.15,0,9.86.56,14,1.65,4.05,1.07,7.54,2.32,10.37,3.7,3.32,1.62,12.87,9.26,13.68,9.96l3.28,2.87-19.45,28.49-4.12-4.11c-1.05-.94-8.17-6.82-9.09-7.48-.8-.56-1.93-1.1-3.34-1.58-1.34-.46-3.03-.69-5.04-.69-2.27,0-4.33.56-6.31,1.73-2.01,1.19-3.6,2.79-4.85,4.9-1.22,2.07-1.82,4.43-1.82,7.22s.6,5.18,1.83,7.28c1.25,2.14,2.83,3.75,4.84,4.93,1.98,1.16,4.04,1.73,6.31,1.73,2.83,0,5.1-.44,6.75-1.31,2.85-1.5,3.64-2.18,3.77-2.3l4.2-3.87,19.08,28.28-3.49,2.83c-1.31,1.06-3.25,2.26-6.1,3.76-2.82,1.48-6.34,2.77-10.44,3.82-4.13,1.06-8.86,1.6-14.06,1.6Z"/>
            <path d="M866.44,217.07c4.74,0,8.99.5,12.74,1.49,3.75.99,6.91,2.12,9.47,3.37,2.56,1.25,11.57,8.35,12.6,9.25l-13.66,20.01c-.45-.45-8.48-7.11-9.67-7.95-1.19-.83-2.71-1.57-4.57-2.21-1.86-.64-4.07-.96-6.64-.96-3.14,0-6.08.8-8.8,2.4-2.73,1.6-4.92,3.82-6.59,6.64-1.67,2.82-2.5,6.06-2.5,9.71s.83,6.91,2.5,9.76c1.67,2.85,3.86,5.08,6.59,6.68,2.72,1.6,5.66,2.4,8.8,2.4,3.66,0,6.67-.62,9.04-1.88,2.37-1.25,3.98-2.26,4.81-3.03l13.37,19.81c-1.03.83-2.79,1.91-5.29,3.22-2.5,1.32-5.63,2.45-9.38,3.41-3.75.96-8.03,1.44-12.84,1.44-9.04,0-16.99-1.72-23.85-5.15-6.86-3.43-12.2-8.29-16.02-14.57-3.82-6.28-5.72-13.66-5.72-22.12s1.91-15.9,5.72-22.12c3.82-6.22,9.15-11.05,16.02-14.48,6.86-3.43,14.81-5.15,23.85-5.15M866.44,207.25c-10.54,0-20.04,2.08-28.25,6.18-8.5,4.25-15.22,10.35-20,18.13-4.76,7.76-7.17,16.93-7.17,27.26s2.41,19.41,7.15,27.22c4.77,7.86,11.51,14.01,20.02,18.26,8.2,4.1,17.71,6.18,28.24,6.18,5.61,0,10.75-.59,15.28-1.75,4.54-1.16,8.3-2.55,11.51-4.24,3.14-1.65,5.34-3.01,6.91-4.29l6.98-5.67-5.03-7.45-13.37-19.81-2.26-3.36,2.59,2.58,6.67-9.77,13.66-20.01,4.91-7.2-6.56-5.74c-.09-.08-10.53-8.62-14.76-10.68-3.16-1.54-6.85-2.86-11.26-4.03-4.56-1.21-9.69-1.82-15.26-1.82h0ZM866.72,267.85c-1.39,0-2.6-.33-3.82-1.05-1.29-.76-2.27-1.76-3.09-3.17-.78-1.34-1.16-2.91-1.16-4.81s.37-3.43,1.13-4.72c.83-1.4,1.82-2.41,3.11-3.17,1.21-.71,2.43-1.05,3.82-1.05,1.91,0,2.98.27,3.44.43,1.26.44,1.88.8,2.09.94,1.2.91,7.35,5.99,8.59,7.07l.44.44-7.26,6.69c-.17.13-.92.65-2.83,1.65-.53.28-1.81.74-4.46.74h0Z"/>
          </g>
          <g>
            <rect x="891.05" y="214.47" width="39.06" height="88.79"/>
            <path d="M925.2,219.38v78.97h-29.24v-78.97h29.24M935.03,209.56h-48.89v98.61h48.89v-98.61h0Z"/>
          </g>
        </g>
      </g>
      <g>
        <path d="M927.41,303.26v-88.79h39.06v3.62c1.37-.94,2.87-1.82,4.5-2.65,4.27-2.17,9.45-3.27,15.4-3.27,4.21,0,8.17.67,11.78,1.98,3.54,1.29,6.14,2.55,7.94,3.86l3.31,2.4-16.44,34.4-4.9-5.95c-.12-.14-.83-.92-3.24-2.18-1.56-.81-3.66-1.22-6.24-1.22-2.81,0-4.98.63-6.63,1.93-1.88,1.48-3.22,3.2-4.08,5.26-.92,2.2-1.39,4.24-1.39,6.08v44.54h-39.06Z"/>
        <path d="M986.38,217.07c3.65,0,7.02.56,10.1,1.68,3.08,1.12,5.32,2.2,6.73,3.22l-11.35,23.76c-.9-1.09-2.48-2.23-4.76-3.41-2.28-1.19-5.11-1.78-8.51-1.78-3.91,0-7.13.99-9.67,2.98-2.53,1.99-4.39,4.39-5.58,7.21-1.19,2.82-1.78,5.48-1.78,7.98v39.63h-29.24v-78.97h29.24v11.13c.66-1.28,1.74-2.79,3.27-4.54,1.99-2.27,4.78-4.33,8.37-6.16,3.59-1.83,7.98-2.74,13.18-2.74M986.38,207.25c-5.58,0-10.61.88-14.99,2.62v-.31h-48.89v98.61h48.89v-49.45c0-1.18.34-2.58,1.01-4.18.54-1.28,1.36-2.33,2.59-3.29.75-.59,1.96-.89,3.6-.89,2.34,0,3.49.42,3.97.67,1.16.6,1.69.99,1.87,1.13l9.65,11.72,6.65-13.91,11.35-23.76,3.52-7.38-6.62-4.8c-2.21-1.6-5.11-3.03-9.14-4.5-4.15-1.51-8.68-2.28-13.46-2.28h0Z"/>
      </g>
      <g>
        <path d="M1040.92,305.57c-9.77,0-18.53-1.91-26.05-5.67-7.67-3.83-13.73-9.35-18.02-16.42-4.27-7.03-6.44-15.33-6.44-24.67s2.17-17.72,6.45-24.69c4.29-6.99,10.34-12.47,18.01-16.3,7.52-3.76,16.28-5.66,26.05-5.66,5.15,0,9.86.56,14,1.65,4.05,1.07,7.54,2.32,10.37,3.7,3.24,1.58,11.17,7.75,12.1,8.56l3.28,2.87-19.45,28.48-4.12-4.1c-.92-.82-6.64-5.46-7.51-6.07-.8-.56-1.93-1.1-3.34-1.59-1.34-.46-3.03-.69-5.04-.69-2.27,0-4.33.56-6.31,1.73-2.01,1.19-3.6,2.79-4.85,4.9-1.22,2.07-1.82,4.43-1.82,7.22s.6,5.18,1.83,7.28c1.25,2.14,2.83,3.75,4.84,4.93,1.98,1.16,4.04,1.73,6.31,1.73,2.83,0,5.1-.44,6.75-1.31,2.85-1.5,3.64-2.18,3.77-2.3l4.2-3.87,19.08,28.28-3.49,2.83c-1.29,1.05-3.29,2.28-6.1,3.76-2.82,1.48-6.34,2.77-10.44,3.82-4.13,1.06-8.86,1.6-14.06,1.6Z"/>
        <path d="M1040.92,217.07c4.74,0,8.99.5,12.74,1.49,3.75.99,6.91,2.12,9.47,3.37,2.56,1.25,9.99,6.94,11.02,7.84l-13.66,20.01c-.45-.45-6.9-5.71-8.08-6.54-1.19-.83-2.71-1.57-4.57-2.21-1.86-.64-4.07-.96-6.64-.96-3.14,0-6.08.8-8.8,2.4-2.73,1.6-4.92,3.82-6.59,6.64-1.67,2.82-2.5,6.06-2.5,9.71s.83,6.91,2.5,9.76c1.67,2.85,3.86,5.08,6.59,6.68,2.72,1.6,5.66,2.4,8.8,2.4,3.66,0,6.67-.62,9.04-1.88,2.37-1.25,3.98-2.26,4.81-3.03l13.37,19.81c-1.03.83-2.79,1.91-5.29,3.22-2.5,1.32-5.63,2.45-9.38,3.41-3.75.96-8.03,1.44-12.84,1.44-9.04,0-16.99-1.72-23.85-5.15-6.86-3.43-12.2-8.29-16.02-14.57-3.82-6.28-5.72-13.66-5.72-22.12s1.91-15.9,5.72-22.12c3.82-6.22,9.15-11.05,16.02-14.48,6.86-3.43,14.81-5.15,23.85-5.15M1040.92,207.25c-10.54,0-20.04,2.08-28.25,6.18-8.5,4.25-15.22,10.35-20,18.13-4.76,7.76-7.17,16.93-7.17,27.26s2.41,19.41,7.15,27.22c4.77,7.86,11.51,14.01,20.02,18.26,8.2,4.1,17.71,6.18,28.24,6.18,5.61,0,10.75-.59,15.28-1.75,4.54-1.16,8.3-2.55,11.51-4.24,3.14-1.65,5.34-3.01,6.91-4.29l6.98-5.67-5.03-7.45-13.37-19.81-1.91-2.84.65.65,6.67-9.77,13.66-20.01,4.91-7.2-6.56-5.74c-.85-.75-9.23-7.35-13.18-9.27-3.16-1.54-6.85-2.86-11.26-4.03-4.56-1.21-9.69-1.82-15.26-1.82h0ZM1041.2,267.85c-1.39,0-2.6-.33-3.82-1.05-1.29-.76-2.27-1.76-3.09-3.17-.78-1.34-1.16-2.91-1.16-4.81s.37-3.43,1.13-4.72c.83-1.4,1.82-2.41,3.11-3.17,1.21-.71,2.43-1.05,3.82-1.05,1.91,0,2.98.27,3.44.43,1.3.45,1.92.82,2.1.95.97.71,5.84,4.66,7,5.66l1.93,1.92-7.17,6.61c-.17.13-.92.65-2.83,1.65-.53.28-1.81.74-4.46.74h0Z"/>
      </g>
      <g>
        <rect x="1064.76" y="161.09" width="39.16" height="142.17"/>
        <path d="M1099.01,166v132.35h-29.34v-132.35h29.34M1108.83,156.17h-48.98v152h48.98v-152h0Z"/>
      </g>
      <g>
        <path d="M1148.16,305.57c-9.42,0-17.97-1.81-25.41-5.39-7.63-3.67-13.72-9.15-18.11-16.28-4.38-7.1-6.6-15.8-6.6-25.85,0-8.49,1.9-16.28,5.65-23.17,3.8-6.98,9.37-12.58,16.57-16.65,7.13-4.03,15.74-6.07,25.6-6.07,9.32,0,17.58,1.76,24.55,5.23,7.19,3.58,12.82,8.97,16.73,16.01,3.82,6.9,5.76,15.48,5.76,25.51,0,.53-.02,1.59-.05,3.18-.04,2.04-.16,3.25-.38,4.17l-.93,3.72h-13.92l12.98,20.67-2.56,2.76c-1.97,2.13-4.58,4.09-7.98,6-3.38,1.9-7.59,3.37-12.86,4.51-5.08,1.09-11.48,1.65-19.02,1.65ZM1137.45,269.98c1.08,1.34,2.54,2.4,4.45,3.24,2.21.97,4.96,1.46,8.18,1.46s6.26-.34,8.82-1c2.6-.67,4.88-1.51,6.75-2.48.84-.44,1.53-.85,2.09-1.22h-30.29ZM1153.83,244.86c-.58-.79-1.32-1.47-2.25-2.06-1.24-.79-3-1.19-5.24-1.19s-4.26.42-5.71,1.24c-1.02.58-1.85,1.24-2.5,2.02h15.7Z"/>
        <path d="M1145.85,217.07c8.59,0,16.05,1.57,22.36,4.71,6.32,3.14,11.19,7.81,14.62,13.99,3.43,6.19,5.15,13.9,5.15,23.13,0,.51-.02,1.54-.05,3.08-.03,1.54-.11,2.57-.24,3.08h-57.13c.19,2.82,1.09,5.32,2.69,7.5,1.6,2.18,3.83,3.9,6.68,5.15,2.85,1.25,6.24,1.88,10.15,1.88s7.07-.39,10.05-1.15c2.98-.77,5.58-1.73,7.79-2.89,2.21-1.15,3.93-2.34,5.15-3.56l11.35,18.08c-1.6,1.73-3.86,3.41-6.78,5.05-2.92,1.63-6.75,2.97-11.49,3.99-4.75,1.02-10.74,1.54-17.99,1.54-8.72,0-16.48-1.64-23.28-4.91-6.8-3.27-12.15-8.08-16.06-14.43-3.91-6.35-5.87-14.11-5.87-23.28,0-7.69,1.68-14.64,5.05-20.82,3.37-6.19,8.26-11.09,14.67-14.72,6.41-3.62,14.14-5.43,23.18-5.43M1131.23,249.77h29.24c-.06-2.05-.61-4.09-1.63-6.11-1.03-2.02-2.57-3.69-4.62-5-2.05-1.31-4.68-1.97-7.89-1.97s-5.92.62-8.13,1.88c-2.21,1.25-3.9,2.87-5.05,4.86-1.15,1.99-1.8,4.11-1.92,6.35M1145.85,207.25c-10.71,0-20.14,2.26-28.01,6.7-8.01,4.53-14.22,10.77-18.47,18.57-4.14,7.62-6.24,16.2-6.24,25.52,0,10.98,2.47,20.54,7.33,28.43,4.89,7.94,11.68,14.04,20.17,18.13,8.11,3.9,17.37,5.88,27.54,5.88,8.01,0,14.57-.58,20.06-1.76,5.76-1.24,10.41-2.89,14.22-5.02,3.86-2.16,6.86-4.43,9.19-6.94l5.12-5.52-4-6.38-6.25-9.96h8.88l1.85-7.45c.32-1.3.48-2.82.53-5.24.03-1.7.05-2.71.05-3.29,0-10.87-2.15-20.26-6.38-27.89-4.4-7.93-10.74-14-18.84-18.03-7.66-3.81-16.66-5.74-26.74-5.74h0Z"/>
      </g>
    </g>
    <g>
      <path class="st1" d="M469.59,222.75c-5.64-3.78-12.31-5.68-20.01-5.68-5,0-9.47.79-13.42,2.36-3.94,1.57-7.12,3.43-9.52,5.58-2.4,2.15-3.9,4.12-4.47,5.92v-64.92h-29.24v132.35h28.95v-12.79c1.28,2.37,3.29,4.73,6.01,7.07,2.72,2.34,5.96,4.26,9.71,5.77,3.75,1.51,7.74,2.26,11.98,2.26,7.69,0,14.36-1.88,20.01-5.63,5.64-3.75,10-8.78,13.08-15.1s4.62-13.32,4.62-21.02-1.54-14.7-4.62-21.02c-3.08-6.31-7.44-11.36-13.08-15.15ZM456.26,268.58c-1.57,2.85-3.72,5.08-6.44,6.68-2.73,1.6-5.79,2.4-9.19,2.4s-6.68-.8-9.47-2.4c-2.79-1.6-4.99-3.83-6.59-6.68-1.6-2.85-2.4-6.07-2.4-9.67s.8-6.81,2.4-9.67c1.6-2.85,3.8-5.1,6.59-6.73,2.79-1.64,5.95-2.45,9.47-2.45s6.46.82,9.19,2.45c2.72,1.63,4.87,3.88,6.44,6.73,1.57,2.85,2.36,6.08,2.36,9.67s-.79,6.81-2.36,9.67Z"/>
      <rect class="st1" x="491.23" y="219.38" width="29.24" height="78.97"/>
      <path class="st1" d="M506.23,203.12c4.55,0,8.46-1.62,11.73-4.86,3.27-3.24,4.91-7.1,4.91-11.59,0-3.08-.77-5.87-2.31-8.37-1.54-2.5-3.56-4.5-6.06-6.01-2.5-1.51-5.26-2.26-8.27-2.26-4.55,0-8.45,1.65-11.69,4.95-3.24,3.3-4.86,7.2-4.86,11.69s1.6,8.35,4.81,11.59c3.21,3.24,7.12,4.86,11.73,4.86Z"/>
      <polygon class="st1" points="527.97 219.38 527.97 239.67 560.96 239.67 521.62 298.35 603.09 298.35 603.09 277.96 566.73 277.96 606.16 219.38 527.97 219.38"/>
      <path class="st1" d="M630.21,172.3c-2.5-1.51-5.26-2.26-8.27-2.26-4.55,0-8.45,1.65-11.69,4.95-3.24,3.3-4.86,7.2-4.86,11.69s1.6,8.35,4.81,11.59c3.21,3.24,7.12,4.86,11.73,4.86s8.46-1.62,11.73-4.86c3.27-3.24,4.91-7.1,4.91-11.59,0-3.08-.77-5.87-2.31-8.37-1.54-2.5-3.56-4.5-6.06-6.01Z"/>
      <rect class="st1" x="606.93" y="219.38" width="29.24" height="78.97"/>
      <path class="st1" d="M770.16,220.77c-4.55-2.47-9.81-3.7-15.77-3.7-4.62,0-8.93.77-12.94,2.31-4.01,1.54-7.34,3.48-10,5.82-2.66,2.34-4.44,4.67-5.34,6.97-1.22-2.69-2.84-5.19-4.86-7.5s-4.6-4.15-7.74-5.53c-3.14-1.38-7.05-2.07-11.73-2.07-4.3,0-8.37.72-12.22,2.16-3.85,1.44-7.07,3.21-9.67,5.29-2.6,2.08-4.28,4.12-5.05,6.11v-11.25h-29.05v78.97h29.05v-41.94c0-3.85.59-7.13,1.78-9.86,1.19-2.73,2.9-4.84,5.15-6.35,2.24-1.51,4.84-2.26,7.79-2.26,4.62,0,7.84,1.7,9.67,5.1,1.83,3.4,2.74,7.86,2.74,13.37v41.94h26.84v-41.94c0-3.78.61-7.04,1.83-9.76,1.22-2.73,2.95-4.86,5.2-6.4,2.24-1.54,4.84-2.31,7.79-2.31,4.94,0,8.24,1.7,9.91,5.1,1.67,3.4,2.5,7.86,2.5,13.37v41.94h28.76v-46.36c0-8.08-1.3-14.68-3.89-19.82-2.6-5.13-6.17-8.93-10.73-11.4Z"/>
      <path class="st1" d="M857.92,242.46c2.72-1.6,5.66-2.4,8.8-2.4,2.56,0,4.78.32,6.64.96,1.86.64,3.38,1.38,4.57,2.21,1.19.83,2,1.48,2.45,1.92l13.66-20.01c-1.03-.9-2.82-1.97-5.39-3.22-2.57-1.25-5.72-2.37-9.47-3.37-3.75-.99-8-1.49-12.74-1.49-9.04,0-16.99,1.72-23.85,5.15-6.86,3.43-12.2,8.26-16.02,14.48-3.82,6.22-5.72,13.6-5.72,22.12s1.91,15.84,5.72,22.12,9.15,11.14,16.02,14.57c6.86,3.43,14.81,5.15,23.85,5.15,4.81,0,9.09-.48,12.84-1.44,3.75-.96,6.88-2.1,9.38-3.41,2.5-1.31,4.26-2.39,5.29-3.22l-13.37-19.81c-.83.77-2.44,1.78-4.81,3.03-2.37,1.25-5.39,1.88-9.04,1.88-3.14,0-6.08-.8-8.8-2.4-2.73-1.6-4.92-3.83-6.59-6.68-1.67-2.85-2.5-6.11-2.5-9.76s.83-6.89,2.5-9.71c1.67-2.82,3.86-5.03,6.59-6.64Z"/>
      <path class="st1" d="M919.24,172.3c-2.5-1.51-5.26-2.26-8.27-2.26-4.55,0-8.45,1.65-11.69,4.95-3.24,3.3-4.86,7.2-4.86,11.69s1.6,8.35,4.81,11.59c3.21,3.24,7.12,4.86,11.73,4.86s8.46-1.62,11.74-4.86c3.27-3.24,4.9-7.1,4.9-11.59,0-3.08-.77-5.87-2.31-8.37s-3.56-4.5-6.06-6.01Z"/>
      <rect class="st1" x="895.96" y="219.38" width="29.24" height="78.97"/>
      <path class="st1" d="M996.48,218.75c-3.08-1.12-6.44-1.68-10.1-1.68-5.2,0-9.59.91-13.18,2.74-3.59,1.83-6.38,3.88-8.37,6.16-1.53,1.75-2.61,3.26-3.27,4.54v-11.13h-29.24v78.97h29.24v-39.63c0-2.5.59-5.16,1.78-7.98,1.19-2.82,3.04-5.23,5.58-7.21,2.53-1.99,5.76-2.98,9.67-2.98,3.4,0,6.24.59,8.51,1.78,2.28,1.19,3.86,2.32,4.76,3.41l11.35-23.76c-1.41-1.03-3.65-2.1-6.73-3.22Z"/>
      <path class="st1" d="M1032.4,242.46c2.72-1.6,5.66-2.4,8.8-2.4,2.56,0,4.78.32,6.64.96,1.86.64,3.38,1.38,4.57,2.21,1.19.83,2,1.48,2.45,1.92l13.66-20.01c-1.03-.9-2.82-1.97-5.39-3.22-2.57-1.25-5.72-2.37-9.47-3.37-3.75-.99-8-1.49-12.74-1.49-9.04,0-16.99,1.72-23.85,5.15-6.86,3.43-12.2,8.26-16.02,14.48-3.82,6.22-5.72,13.6-5.72,22.12s1.91,15.84,5.72,22.12c3.82,6.28,9.15,11.14,16.02,14.57,6.86,3.43,14.81,5.15,23.85,5.15,4.81,0,9.09-.48,12.84-1.44,3.75-.96,6.88-2.1,9.38-3.41,2.5-1.31,4.26-2.39,5.29-3.22l-13.37-19.81c-.83.77-2.44,1.78-4.81,3.03-2.37,1.25-5.39,1.88-9.04,1.88-3.14,0-6.08-.8-8.8-2.4-2.73-1.6-4.92-3.83-6.59-6.68-1.67-2.85-2.5-6.11-2.5-9.76s.83-6.89,2.5-9.71c1.67-2.82,3.86-5.03,6.59-6.64Z"/>
      <rect class="st1" x="1069.67" y="166" width="29.34" height="132.35"/>
      <path class="st1" d="M1182.84,235.78c-3.43-6.19-8.3-10.85-14.62-13.99-6.32-3.14-13.77-4.71-22.36-4.71-9.04,0-16.77,1.81-23.18,5.43-6.41,3.62-11.3,8.53-14.67,14.72-3.37,6.19-5.05,13.13-5.05,20.82,0,9.17,1.96,16.93,5.87,23.28,3.91,6.35,9.26,11.16,16.06,14.43,6.8,3.27,14.55,4.91,23.28,4.91,7.25,0,13.24-.52,17.99-1.54,4.74-1.03,8.58-2.36,11.49-3.99,2.92-1.64,5.18-3.32,6.78-5.05l-11.35-18.08c-1.22,1.22-2.93,2.4-5.15,3.56-2.21,1.15-4.81,2.12-7.79,2.89-2.98.77-6.33,1.15-10.05,1.15-3.91,0-7.29-.62-10.15-1.88-2.85-1.25-5.08-2.97-6.68-5.15-1.6-2.18-2.5-4.68-2.69-7.5h57.13c.13-.51.21-1.54.24-3.08.03-1.54.05-2.56.05-3.08,0-9.23-1.72-16.94-5.15-23.13ZM1131.23,249.77c.13-2.24.77-4.36,1.92-6.35,1.15-1.99,2.84-3.61,5.05-4.86,2.21-1.25,4.92-1.88,8.13-1.88s5.83.66,7.89,1.97c2.05,1.32,3.59,2.98,4.62,5,1.03,2.02,1.57,4.06,1.63,6.11h-29.24Z"/>
    </g>
  </g>
</svg>